<svg version="1.1" id="Layer_1" xmlns="http://www.w3.org/2000/svg" x="0" y="0" viewBox="0 0 145.5 42.2" xml:space="preserve"><style>.st0{fill:#fff}</style><path class="st0" d="M50.8 12.6c-.2-.5-.5-.9-1.1-.9-.8 0-1.3.7-1.3 2.2 0 1.4.4 2.2 1.3 2.2.5 0 .9-.2 1.2-.9l1.1.3c-.4 1.1-1.2 1.6-2.3 1.6-1.6 0-2.5-1.2-2.5-3.2s.9-3.2 2.5-3.2c1.2 0 1.9.5 2.2 1.6l-1.1.3zm4.4 4.4l-.1-.4c-.4.3-.8.5-1.4.5-.8 0-1.2-.6-1.2-1.2 0-1 .8-1.5 2.5-1.7v-.4c0-.3-.3-.5-.6-.5-.5 0-.8.3-1 .5l-.7-.5c.3-.5 1-.8 1.7-.8 1.2 0 1.7.5 1.7 1.8v2.1c0 .2 0 .4.1.6h-1zm-.1-2.1c-.7.1-1.5.3-1.5.9 0 .3.2.5.5.5s.8-.3 1-.5v-.9zm2.2 2.1v-6.2h1.1V17h-1.1zm2.2-5.3v-1h1.1v1h-1.1zm1.1 5.3h-1.1v-4.4h1.1V17zm2.6-3.6V17h-1.1v-3.6h-.6v-.9h.6V12c0-1 .4-1.3 1.3-1.3h.6v.9h-.3c-.4 0-.6.1-.6.5v.5h.9v.9c0-.1-.8-.1-.8-.1zm3.2-.9c1.2 0 1.9.9 1.9 2.3s-.7 2.3-1.9 2.3-1.9-.9-1.9-2.3.7-2.3 1.9-2.3zm0 .8c-.6 0-.9.5-.9 1.5s.3 1.5.9 1.5c.6 0 .9-.5.9-1.5s-.3-1.5-.9-1.5zm2.7 3.7v-4.4h1v.8c.3-.5.6-.8 1.2-.8v1.1h-.2c-.5 0-1 .6-1 .7V17h-1zm2.9 0v-4.4h1v.4c.4-.3.8-.6 1.4-.6.9 0 1.3.6 1.3 1.5v3h-1.1V14c0-.6-.2-.8-.5-.8-.5 0-.8.3-1 .5V17H72zm4.8-5.3v-1h1.1v1h-1.1zm1 5.3h-1.1v-4.4h1.1V17zm3.5 0l-.1-.4c-.4.3-.8.5-1.4.5-.8 0-1.2-.6-1.2-1.2 0-1 .8-1.5 2.5-1.7v-.4c0-.3-.3-.5-.6-.5-.5 0-.8.3-1 .5l-.7-.5c.3-.5 1-.8 1.7-.8 1.2 0 1.7.5 1.7 1.8v2.1c0 .2 0 .4.1.6h-1zm-.1-2.1c-.7.1-1.5.3-1.5.9 0 .3.2.5.5.5s.8-.3 1-.5v-.9zm7.5-2.4c-.2-.5-.5-.8-1.1-.8-.5 0-.9.2-.9.7 0 1.1 3.2.8 3.2 2.8 0 1.3-.8 1.9-2.2 1.9-1 0-2-.6-2.3-1.5l1-.4c.3.6.6 1 1.3 1 .6 0 1-.2 1-.8 0-1.2-3.2-1-3.2-2.9 0-1.1.9-1.7 2-1.7 1 0 1.8.5 2.2 1.4l-1 .3zm2.2.1v-1.5H92v1.5h.9v.9H92V16c0 .2.1.3.4.3.2 0 .3-.1.5-.1v.8c-.3 0-.5.1-.8.1-.8 0-1.1-.4-1.1-1v-2.6h-.6v-.9h.5zM96 17l-.1-.4c-.4.3-.8.5-1.4.5-.8 0-1.2-.6-1.2-1.2 0-1 .8-1.5 2.5-1.7v-.4c0-.3-.3-.5-.6-.5-.5 0-.8.3-1 .5l-.7-.5c.3-.5 1-.8 1.7-.8 1.2 0 1.7.5 1.7 1.8v2.1c0 .2 0 .4.1.6h-1zm-.1-2.1c-.7.1-1.5.3-1.5.9 0 .3.2.5.5.5s.8-.3 1-.5v-.9zm2.3-2.3v-1.5h1.1v1.5h.9v.9h-.9V16c0 .2.1.3.4.3.2 0 .3-.1.5-.1v.8c-.3 0-.5.1-.8.1-.8 0-1.1-.4-1.1-1v-2.6h-.6v-.9h.5zm3.4 2.3c0 .9.4 1.3.9 1.3s.7-.2 1-.5l.8.5c-.4.6-1 .9-1.9.9-1.2 0-1.9-.9-1.9-2.3s.7-2.3 1.9-2.3 1.8 1 1.8 2v.4h-2.6zm1.7-.7c0-.6-.3-1-.9-1s-.8.4-.9 1h1.8zm7.9-3.4h1.2v3.9c0 1.8-1.1 2.4-2.4 2.4-1.3 0-2.4-.6-2.4-2.4v-3.9h1.2v3.9c0 1 .4 1.3 1.2 1.3.8 0 1.2-.3 1.2-1.3v-3.9zm2.4 6.2v-4.4h1v.4c.4-.3.8-.6 1.4-.6.9 0 1.3.6 1.3 1.5v3h-1.1V14c0-.6-.2-.8-.5-.8-.5 0-.8.3-1 .5V17h-1.1zm4.8-5.3v-1h1.1v1h-1.1zm1 5.3h-1.1v-4.4h1.1V17zm.9-4.4h1.1l.7 3 .8-3h1.1l-1.3 4.4h-1.1c-.1 0-1.3-4.4-1.3-4.4zm5.1 2.3c0 .9.4 1.3.9 1.3s.7-.2 1-.5l.8.5c-.4.6-1 .9-1.9.9-1.2 0-1.9-.9-1.9-2.3s.7-2.3 1.9-2.3 1.8 1 1.8 2v.4h-2.6zm1.7-.7c0-.6-.3-1-.9-1s-.8.4-.9 1h1.8zm2 2.8v-4.4h1v.8c.3-.5.6-.8 1.2-.8v1.1h-.2c-.5 0-1 .6-1 .7V17h-1zm5.2-3.3c-.2-.2-.5-.5-.8-.5-.4 0-.6.2-.6.4 0 .8 2.2.4 2.2 2.1 0 .9-.7 1.3-1.6 1.3-.7 0-1.3-.3-1.7-.9l.7-.5c.2.3.6.6 1 .6s.6-.2.6-.5c0-.8-2.2-.5-2.2-2 0-.8.7-1.3 1.5-1.3.6 0 1.2.2 1.6.7l-.7.6zm1.6-2v-1h1.1v1h-1.1zM137 17h-1.1v-4.4h1.1V17zm1.5-4.4v-1.5h1.1v1.5h.9v.9h-.9V16c0 .2.1.3.4.3.2 0 .3-.1.5-.1v.8c-.3 0-.5.1-.8.1-.8 0-1.1-.4-1.1-1v-2.6h-.6v-.9h.5zm2.6 5.1h.4c.4 0 .6-.1.7-.4.1-.2.2-.3.2-.5s-.1-.3-.1-.5l-1.2-3.8h1.1l.7 2.7.8-2.7h1.1l-1.4 4.4c-.5 1.3-.8 1.6-1.7 1.6h-.5l-.1-.8zM47.6 31.2v-9.8h2.6l1.9 6.8 1.9-6.8h2.6v9.8H55v-7.7l-2.2 7.7h-1.4l-2.2-7.7v7.7h-1.6zm14.5.2c-2.7 0-4.1-1.8-4.1-5s1.4-5 4.1-5c2.7 0 4.1 1.8 4.1 5s-1.4 5-4.1 5zm0-8.5c-1.5 0-2.2 1.2-2.2 3.4 0 2.3.7 3.4 2.2 3.4 1.5 0 2.2-1.2 2.2-3.4.1-2.2-.6-3.4-2.2-3.4zm5.8 8.3v-9.8h1.9l3.8 6.6v-6.6h1.8v9.8h-1.8l-4-6.9v6.9h-1.7zm15.9-9.8V23h-2.6v8.2h-1.9V23h-2.6v-1.6h7.1zm1.5 9.8v-9.8h6.5V23h-4.6v2.3h3.3v1.6h-3.3v2.7h4.7v1.6h-6.6zm8.1 0v-9.8h3.9c2.2 0 3.1 1.3 3.1 2.9 0 1.2-.6 2.2-1.8 2.5l2.1 4.4h-2.1l-1.8-4h-1.6v4h-1.8zm1.8-5.5h1.4c1.5 0 1.9-.5 1.9-1.4 0-.9-.6-1.4-1.6-1.4h-1.7v2.8zm7.1 5.5v-9.8h6.5V23h-4.6v2.3h3.3v1.6h-3.3v2.7h4.7v1.6h-6.6zm11.2-5.9l1.7-3.9h1.9l-2.7 5.9v3.9h-1.9v-3.9l-2.7-5.9h1.9c.1.1 1.8 3.9 1.8 3.9zm8-3.8h3.6c1.9 0 3.2.6 3.3 2.4 0 1-.4 1.8-1.5 2.2 1.3.5 1.7 1.1 1.7 2.6s-1.1 2.6-3.6 2.6h-3.6c.1-.1.1-9.8.1-9.8zm1.9 3.9h1.9c.9 0 1.3-.5 1.3-1.2s-.4-1.2-1.3-1.2h-1.9v2.4zm0 4.3h1.9c1.1 0 1.6-.5 1.6-1.4 0-.9-.5-1.4-1.6-1.4h-1.9v2.8zm9-8.3h2.3l2.8 9.8h-1.9l-.5-2.1H132l-.6 2.1h-1.9l2.9-9.8zm0 6.2h2.3l-1.1-4.2-1.2 4.2zm8.3-2.3l1.7-3.9h1.9l-2.7 5.9v3.9h-1.9v-3.9l-2.7-5.9h1.9l1.8 3.9zM20.6 17.2c-4.7 0-8.5 3.8-8.5 8.5s3.8 8.5 8.5 8.5 8.5-3.8 8.5-8.5c0-4.6-3.8-8.5-8.5-8.5zm.1 15.4c-3.8 0-6.9-3.1-6.9-6.9 0-3.8 3.1-6.9 6.9-6.9 3.8 0 6.9 3.1 6.9 6.9 0 3.9-3.1 6.9-6.9 6.9z"/><path class="st0" d="M1.3 24.6s.4.5 1.6.2c.6-.1.9 0 1 .1v.2c0 .1-.1.3-.2.4 0 0 .6.2 1.1.1.5-.1 1.1-.1 1.2-.1.1 0 .2 0 .2.2-.1.1-.2.3-.2.3s.4-.1 1.2-.2c.3-.1.9-.1 1.3 0 .5.1.5.8 1.2 1 .7.2.7-1.5.7-2s.2-.7.5-1c.6-.4.4-1.1.4-1.6-.1-.5.9-.9 1.1-1.5.2-.6 0-1.1-.1-1.4-.1-.2.1-.4.2-.5.3-.3.8-1.1.6-1.4-.2-.3-1.4 0-2.6 1.1-1.2 1.1-2.1 2.4-2.4 3 0 .1-.1-.1 0-.3.2-.2.9-1.9 2.2-3.2 1.3-1.3 2.6-1.8 3.6-1.6 1 .2.8 1 .6 1.5-.2.4-.7.8-.8 1.3-.1.5 0 .9.1 1.4 0 .5-.1.8-.6 1.4-.2.2-.6.7-.6.9 0 .1.2.3-.1 1.2-.3.8-1 1-1 1.3 0 .2 0 1.3-.7 2s-1.5.4-1.8 0c-.3-.4-.5-.9-1.2-.9s-1.2 0-1.9.2c-.7.1-1.4.2-1.6.1l-.3-.3s.3 0 .7-.2c.3-.1.3-.2.3-.2s-.7.1-1.5 0c-.8 0-1.5-.3-2-.3 0 0 .2-.2.6-.3.4-.1.4-.2.4-.2-.7.1-1.5-.4-1.5-.5-.1-1.1.5-3 .5-3l-.3.2c-.2.2-.5.2-.5.2.1-.3.2-.6.3-1.1.2-1.2 1.2-3.3 1.2-3.3s-.2 0-.4.1l-.4.2s0-.2.2-.6c.2-.4.5-.9.8-1.3.4-.5.6-.9.6-.9s-.1-.1-.4 0c-.3.1-.5.2-.5.2s.2-.3.8-1c.6-.7 1.4-1.3 1.4-1.3s-.2.1-.4.1h-.4s.2-.2.9-.7c.8-.5 1.6-.9 1.6-.9h-.4c-.2 0-.5.1-.5.1s.6-.5 1.9-.9c1.7-.6 2.4-.4 2.4-.4s-.5.1-1.1.3l-.8.4s.2.2.3.2c0 0 .1.1 0 .1s-.6.1-1.1.3l-.8.4.2.1c.1 0 .1.1 0 .2 0 0-.3.3-.9.8-.6.5-.9.9-.9.9h.4c.1 0 .1 0 0 .1s-.6.6-.9 1.1c-.4.5-.6.9-.6.9s.6-.2.5.2c-.1.2-.3.7-.9 2-.6 1.3-1 2.1-1 2.1s.6-.1.6 0c0 0 .1.1.1.2s-.5.8-.9 2.2c-.3 1-.3 1.6-.3 1.6zM37 27.7s-.3-.1-.4-.1c-.2 0-.2.3-.2.4.1 1 0 2.3-.1 2.4 0 .1-.5-.2-.6-.2-.1 0-.2 0-.2.2-.2 1.6-.9 3.4-.9 3.4s-.1-.3-.2-.4c0-.1-.1-.1-.2 0-.3.3-.6 1-.8 1.7-.2.7-.6 1.2-.6 1.2-.1 0-.1-.4-.1-.6 0-.1-.2-.1-.2 0s-.3.6-.7 1.6c-.5 1-.9 1.9-1.6 2-.5 0-.7-1.4-.7-1.4s-.2.1-.3.4c-.1.2-.1.5-.1.5-.5-1.5-.3-2.6-.3-2.7 0-.1-.1-.2-.1-.1-.1 0-.3.2-.3.2 0-.2-.2-.5-.3-.8-.2-.3-.6-.2-1-.1-.3 0-.4-.3-.2-.9.2-.6 1.1-1 1.4-1.2.3-.2.1-.5.2-.9.2-.7 1.2-1 1.3-1.2.1-.2-.1-.6 0-1.1.1-.5 1.1-1.1 1.1-1.1-.1-.9 0-1.9.4-2.4s1.1-.1 1.4 1.4c.3 2.1-.6 3.5-1 4.4-.4.9-.6.9-.5 1 0 0 .3 0 .6-.5.4-.5 1.9-2.6 1.6-4.9-.3-2.3-1.6-2.9-2.5-2.4-1 .5-1.1 1.4-.9 3.1 0 0-.6.4-.8.8-.2.4-.1 1.1-.2 1.2-.1.1-.6.3-.9.8-.3.5-.3 1.1-.5 1.2-.2.1-1 .5-1.3 1.5-.3 1 0 1.8.5 1.7.5-.1 1.2-.2 1.2.6 0 .7-.1 1.6 0 2.2 0 0 .2-.6.3-.8 0 0 .5 2.6 1.5 3.5 0 0 0-.4-.1-.8s0-.6 0-.6.1.4.6.4c.9 0 1.9-2.2 1.9-2.2 0 .5.1.7.1.7.9-1 1.4-2.4 1.7-3.1.2-.7.5-1.1.5-1.1s.1.1.1.3c0 .3.1.6.1.6 1.1-2.4 1.4-4.3 1.4-4.3s.1.1.2.3c.1.3.3.5.3.5.6-2.1.5-3.4.5-3.4s.1 0 .3.2l.4.4c.1-1-.1-1.7-.3-2.5-.2-.7-.4-1.6-.4-1.6.4 0 .6.3.6.3-.6-2.5-1.3-3.4-1.3-3.4h.3c.2 0 .4.1.4.1-.6-1.5-1.6-2.3-1.6-2.3.1-.1.5 0 .5 0-1.1-1.9-3.3-2.5-3.3-2.5s1.3.8 2 1.7c.1.1-.1.2-.3.2-.1 0-.2.1-.1.2s1 1 1.3 1.7c.1.1-.5 0-.4.3.1.3 1 1.6 1.2 2.6 0 0-.7-.2-.6.1-.1.2.6 1.4 1.2 3.6zM22.9 2.1s-.7 0-1.7.1-1.4.3-1.8.3h-.5s.2.3.5.3.5 0 .7.1c0 0-.4.1-1.3.4-1.1.4-1.2.5-2.3.8 0 0 .3.2.6.2s.4.1.4.1-.8.2-1.7.5c-.9.4-1.1.6-1.5.6 0 0 .2.1.5.2.2 0 .4.1.4.1s-.4 0-1.2.5c-.8.4-1 .6-1.6.7 0 0 .3.2.6.2h.3s-.5.3-1.3.7c-.8.4-.9.5-1.2.7 0 0 .4 0 .6.1.1 0 .1.1.2.1 0 0-.5.3-1.2.7-.8.5-1 .9-1 .9s1.6-1 3-1.4c.1 0 .2-.2.1-.3-.1-.1-.4-.3-.4-.3s.1-.1 1-.5 1.4-.6 1.5-.7c.1-.1 0-.2-.1-.2s-.4-.2-.4-.2l.6-.3c.7-.3 1.8-.7 1.9-.7.1 0 .1-.1 0-.2s-.4-.3-.4-.3.3-.2.8-.3c.6-.1 1.1-.3 1.3-.4.2-.1.3-.2.2-.3 0-.1-.2-.3-.2-.3s.3-.1.7-.3c.5-.2.9-.2 1.4-.3.5-.1.6-.2.6-.3 0-.2-.1-.3-.1-.3l.6-.1c.6-.1 1.1-.1 1.5-.1h.8c.2-.1.2-.4.2-.4s.5-.1 1.1.1c.7.2 1 .3 1.1.3.2 0 .3 0 .3-.2 0-.1.1-.3.1-.3s.5 0 1.2.3c.8.3 1.1.6 1.3.7.1.1.2 0 .3-.1.4.1.5 0 .5 0h.3c.2.1.5.2.9.5.3.2.4.4.7.5.1 0 .2-.2.3-.4.1-.2.2-.3.2-.3s.1 0 .4.2c.3.2.6.4.8.6h.1s0-.3-.2-.5c-.3-.4-.9-.9-1.4-1.2-.5-.3-.7-.4-.8-.6 0-.1-.1-.1-.1-.1s0 .2.1.5c.2.3.1.5.1.5s-.5-.4-1.2-.7c-.6-.3-.8-.4-1.1-.6-.3-.2-.4-.2-.4-.2s0 .3.2.5c.1.2.1.3.1.3s-.8-.4-2-.7C25.8 1 25.1.8 25.1.8s.1.4.3.5c.2.2.2.3.2.3s-.9-.2-1.9-.2h-1.6s0 .2.4.3l.4.4zm15 3.4c.3.5.2 1.6-.1 2-.3.4-.8.7-1.1 1.1-.3.3-.6.9-.7 1.3-.1.4-.3.8-.7.8-.3 0-.7-.3-.9-.7-.2-.4-.2-1-1-1.4-.7-.4-2.1-.9-2.1-1.7 0-.9.9-1.2 1.4-1.9.5-.7 1.3-1.2 2.1-1.2 1.1 0 2.5.7 3.1 1.7zm2.9 6.9l-.2-.4s.1-.1.3-.2c.3-.1.5-.1.5-.3 0-1-.7-1.6-.7-1.6.1-.1.3 0 .5 0s.2-.1.2-.1C41 8.7 40 8 40 8c.2-.1.4 0 .6 0 .2.1.3 0 .3 0-.2-.6-.7-1.1-1.3-1.4-.6-.3-1.1-.3-1.1-.3-.1 0 0 .1 0 .1.1 0 .3.2.6.4.3.3.3.4.3.4s0 .2-.2.4c-.3.2-.5.4-.6.4v.1c.1 0 .4.2.8.6.4.3.5.6.4.6-.1 0-.4.1-.3.3.1.2.3.3.5.5s.4.3.2.9c-.1.4-.3.5-.5.5h-.3c0 .1.3.6.2.9-.1.3-.3.5-.7.4-.2 0-.2 0-.2.1s.4.4.3 1c-.1.3-.4.4-.6.3-.1-.3-.3-.7-.4-1-.1-.1-.2-.2-.3-.1-.1.1-.2.2-.1.3 0 .1.1.2.1.2l.3.6c0 .2 0 .5-.1.7-.1.4-.3.5-.5.1s-.3-.9-.3-1c0-.1-.3 0-.3.2 0 .1-.1.8-.4.9-.1 0-.2-.2-.2-.5s.2-.9-.2-1.2c-.1-.1-.2-.1-.3-.1-.1 0-.2.1-.2.1 0 .9-.3 1.4-.3 1.4s.4-.4.4-.2.1.9.3 1.2c.2.3.5.4.7.4.1 0 0-.2.3-.6.1-.1.1-.2.2-.1 0 .1.2.6.7.6.4 0 .6-.3.8-.6.9 2.9.9 5.7-.2 7.6 1.3-1.9 1.4-4.9.4-8 .3-.1.8 0 1-.5 1.3 2.7 1.6 5.4.9 7.3 1-2 .7-5.1-.7-8 0-.2-.1-.3-.1-.3s.3-.2.7-.3c.1 0 .2 0 .2-.1 1.7 2.5 2.4 5.2 1.9 7.3.8-2.3.1-5.4-1.9-8.1z"/><path class="st0" d="M28.3 5.3c.1.1.2.2.1.4s-.3.3-.6.4c-.5 0-1-.3-2.1-.3-.6 0-1.3.1-1.9.4-.6.3-.7.4-.7.4s0-.1.1-.2c.2-.2 1.3-1 2.9-1.3 1.2-.2 1.9 0 2.2.2z"/><path class="st0" d="M27.4 6.2s.1 0 0 0c.1.1.2.3.1.6s-.2.5-.5.8c-.3.3-.9.2-1.2-.3-.2-.5-.1-1.3.5-1.4.2-.1.3.1.3.2 0 .2-.1.4 0 .5.1.2.3.2.6 0 .2-.2.2-.3.3-.4-.1.1-.1 0-.1 0zm7.7 5.9c-.1-.1-.2-.1-.2.1 0 .3-.1.5-.3.8-.2.3-.3.1-.4.2-.4.3-.2 1-.2 1.3 0 .3-.1.7-.2.6-.3-.1-.4-.5-.4-.7-.1-.3-.3-.3-.3-.2-.1.4-.4 1.3-.7 1.7-.1.2-.3 0-.4-.2l.6-1.5c0-.1.1-.2.1-.3.1-.1 0-.3-.1-.3-.1-.1-.3 0-.3.1-.4.8-.7 1.6-.9 2.4l-.6.9c-.2.2-.4-.8-.8-.3-.1.2-.5.7-.7.9h-.1c.3-.9.8-1.8 1.4-2.7.1-.1.1-.2.1-.2.1-.1 0-.2-.1-.3-.1-.1-.2 0-.3.1-.5.8-1 1.6-1.3 2.5-.1-.4-.5 0-.7.2-.2.2-.4.5-.5.4v-.2c0-.2-.2-.2-.4-.3.3-.5.7-1.1 1.1-1.6 0-.1.1-.1.1-.2.1-.1 0-.2 0-.3-.1-.1-.2-.1-.3 0-.5.7-.9 1.3-1.3 2-.2 0-.3.1-.4.1-.4.1-.7.2-.7.2 0-.1 0-.3-.2-.5-.2-.1-.9 0-1.1 0-.3 0-.3-.1-.3-.2.1-.4-.2-.6-.6-.7-.4-.1-.6-.2-.6-.2.1-.4-.4-.6-.8-.8-.3-.2-.7-.4-.7-.4v-.3c0-.4-.5-.5-.8-.8-.3-.2-.4-.7-.4-.7s0 .1.1.5.5.6.6.9c.1.3-.1.5-.1.5.3.2.6.4 1 .7.4.3.1.5.1.5.3.2.7.4 1.2.6.5.1.1.5.1.5.5.3 1.1.4 1.5.5.4 0 .1.5.1.5.3.1.6.1 1.4-.1h.3c-.9 2.1-1.1 4.3-.5 5.8-.5-1.6-.2-3.7.8-5.8.2.1.2.3.1.4-.1.2 0 .4.1.3.7-.3 1.1-.9 1.3-.9 0 0 .1 0 .1.1-.8 2.4-.7 4.7.1 6.3-.6-1.5-.6-3.5 0-5.5.4-.2.6-.6.9-.8.3-.2.4-.1.4.1.1.2-.1.6.1.5.3-.1.5-.3.7-.5-.4 2.6-.1 4.9 1 6.5-1-1.8-1.2-4.5-.5-7.3 0-.1.1-.2.1-.2.1-.1.2 0 .2.3 0 .2 0 .4.2.3.7-.4 1.2-1.5 1.2-1.8 0-.1.1 0 .2.1.3.3.2.6.3.6.2 0 .4-.2.6-.5.2-.3.2-1.1.2-1.3 0-.2.4.2.4.2s.3-.5.3-1.4c.3-.7.2-1 .1-1.2z"/><path class="st0" d="M28.9 17.9c0-.1-.1-.1 0 0-.1-.1-.1-.1-.2-.1.1.1.1.1.2.1zm-4.3-1.2c0 .1 0 .2.3.2h.7c-.3-.2-.7-.4-1-.5v.3zm1.7.7l-.2-.2v.2c0 .1.1.1.2 0zm2.2 2.1c.1-.5.2-1 .4-1.5l-.1-.1c-.2.1-.5.5-1 .8.2.1.4.4.7.8zm.8-1.1c-.1.1-.2.2-.3.2-.1.4-.2.8-.3 1.1 1.2 1.6 1.9 3.6 2 5.8.1 0 .1-.1.2-.1.3-.2.7-.2 1.1-.1 0-.4-.1-.9-.1-1.3-.5-.8-.8-1.9-.9-3-.5-.9-1-1.8-1.7-2.6zm-6.8-2.6c0-.1 0-.2-.2-.3-.4-.3-.8-.5-1-.7 0 0 .1-.2.1-.4h-.6c-2.4 0-4.7.8-6.5 2.1.6.2.6.8.5 1.2 1.7-1.3 3.8-2 6-2 .5 0 1.1 0 1.7.1zM10.8 27.3c-.4.4-.9.4-1.2.2.8 5.4 5.4 9.5 11.1 9.5 2 0 4-.6 5.6-1.5-.2-.3-.2-.8-.1-1.4-1.6 1.1-3.5 1.7-5.5 1.7-5 0-9.2-3.7-9.9-8.5zm-2.2-1.5c-.5-.1-1-.1-1.3 0-.9.1-1.3.2-1.3.2l.2-.4c.1-.2-.1-.2-.2-.2s-.7 0-1.2.1-1.1-.1-1.1-.1c.1-.1.2-.3.2-.4 0 0 0-.1-.1-.2s-.4-.2-1-.1c-1.2.2-1.6-.2-1.6-.2s.1-.6.3-1.6c.4-1.4.9-2.1.9-2.2 0-.1 0-.2-.1-.2h-.6s.3-.8 1-2.1.8-1.7.9-2c.1-.4-.5-.2-.5-.2s.3-.4.6-.9c.4-.5.9-1 .9-1.1.1-.1 0-.1 0-.1h-.4s.2-.3.9-.9c.6-.5.9-.7.9-.8.1-.1.1-.2 0-.2l-.2-.1s.2-.2.8-.4c.6-.3 1-.3 1.1-.3.1 0 .1-.1 0-.1l-.3-.2.8-.4c.6-.3 1.1-.3 1.1-.3s-.5-.1-2.3.5c-1.3.4-1.9.9-1.9.9s.2-.1.5-.1H6s-.8.4-1.5.9-.9.7-.9.7H4c.2 0 .4-.1.4-.1s-.8.6-1.4 1.3c-.6.7-.8 1-.8 1s.2-.1.5-.2.4 0 .4 0-.2.4-.6.9c-.4.5-.7.9-.8 1.3-.2.4-.2.6-.2.6s.2 0 .4-.2c.2-.1.4-.1.4-.1s-1 2.1-1.3 3.3c-.1.5-.2.8-.3 1.1 0 0 .3-.1.5-.2.2-.2.3-.2.3-.2s-.6 2-.5 3c0 .1.8.6 1.6.5 0 0 0 .1-.4.2s-.6.3-.6.3c.5 0 1.2.3 2 .3h1.5s-.1.1-.4.2c-.4.2-.7.2-.7.2s.1.1.4.2c.3.1.9 0 1.6-.1.7-.1 1.1-.1 1.9-.2.7 0 .9.5 1.2.9.1.1.3.2.5.3-.1-.3-.1-.7-.1-1-.5-.3-.5-.8-.9-.8zm23.5-1.3l-.3-.6v.2c.1.1.2.2.3.4zm-4.7-6.2c-.1.2 0 .5.1.4.1 0 .1-.1.2-.1l-.3-.3z"/><path class="st0" d="M29 24.2c-.5-1.2-.6-2.8-.2-4.4-.1-.1-.2-.2-.2-.3-.4 1.7-.3 3.4.4 4.7zM25.9 17h-.3c.2.1.4.2.5.3 0-.1-.1-.2-.2-.3zm-7 8.4c-.1 0-.2 0-.3.1-.4.1-.7.5-.7 1 0 .6.5 1 1 1 .2 0 .4-.1.6-.2.3-.2.4-.5.4-.8 0-.7-.5-1.1-1-1.1z"/><path class="st0" d="M24.9 28.5l-.2-.2-.1-.2-.1-.1v-.2l-.8-.8-.2-.2-1-.9-.5-.4-.4-.4-.6-.5-.1-.1-.2-.2-.2-.2-.1-.1v-2.9h-3.2v.1h.1v.9l-.2.4v.3l.1.1h.1v.1l.1.1.1.1v.9l.1.1.1.1v.1l.1.1.1.1v.1h.1c.2-.1.4-.1.6-.1 1 0 1.8.8 1.8 1.8 0 .6-.3 1.1-.7 1.4v.4h.1v.1h.8l.1.1h.1l.1.1h.5l.1.1h.2l.1.1.1.1h.1l.1.1.1.3v.3h.1-.1v.1l.8-.1 1-.1h.1v-.2H24v-.1l.1-.1v-.4l.1-.1v-.1l.7.1z"/></svg>